<svg id="456d345d-a9de-4d2d-a573-a4f38c580807" data-name="Layer 1" xmlns="http://www.w3.org/2000/svg" xmlns:xlink="http://www.w3.org/1999/xlink" viewBox="0 0 145.88 445.83"><defs><linearGradient id="1a97b8a8-7076-4920-a414-a5c6753ef40a" x1="441.3" y1="326.62" x2="587.12" y2="326.62" gradientUnits="userSpaceOnUse"><stop offset="0" stop-color="#c3d0d8"/><stop offset="0.51" stop-color="#fff"/><stop offset="1" stop-color="#bdccd4"/></linearGradient></defs><title>bloodVialShell</title><path d="M584,103.71H444.28q-4.14,7.33-2.53,10.66a40.38,40.38,0,0,0,5.29,7.75V488.85c2.67,33.95,31.81,60.68,67.1,60.68s64.42-26.73,67.1-60.68V122.11a32.84,32.84,0,0,0,4.87-7.89Q588.9,108.49,584,103.71ZM568.12,484.15H568c-2.15,26.38-25.39,47.16-53.74,47.16s-51.75-20.77-53.9-47.16V123.21H568.12V484.15Z" transform="translate(-441.29 -103.71)" fill-rule="evenodd" opacity="0.3" fill="url(#1a97b8a8-7076-4920-a414-a5c6753ef40a)"/><path d="M584,103.71H444.28s-1.54,2.94-2.24,4.76a13.69,13.69,0,0,0-.74,5.15H586.39a7,7,0,0,0,.38-5.69A11.59,11.59,0,0,0,584,103.71Z" transform="translate(-441.29 -103.71)" fill="#cdcccc" fill-rule="evenodd" opacity="0.3"/></svg>